<svg width="256" height="256" viewBox="0 0 256 256" fill="none" xmlns="http://www.w3.org/2000/svg" role="img" aria-labelledby="title desc">
  <title id="title">PortPulse Logo</title>
  <desc id="desc">A rounded dashboard tile with service nodes and a pulse line.</desc>
  <rect x="24" y="24" width="208" height="208" rx="52" fill="#111827"/>
  <rect x="48" y="58" width="160" height="140" rx="28" fill="#172033" stroke="#334155" stroke-width="6"/>
  <circle cx="78" cy="92" r="12" fill="#60A5FA"/>
  <circle cx="178" cy="92" r="12" fill="#34D399"/>
  <circle cx="128" cy="164" r="12" fill="#FBBF24"/>
  <path d="M88 92H116C122 92 126 97 128 102L139 134C141 140 150 140 153 134L166 104C168 99 172 96 178 96" stroke="#E5E7EB" stroke-width="10" stroke-linecap="round" stroke-linejoin="round"/>
  <path d="M78 104V132C78 140 84 146 92 146H112" stroke="#60A5FA" stroke-width="7" stroke-linecap="round"/>
  <path d="M178 104V132C178 140 172 146 164 146H144" stroke="#34D399" stroke-width="7" stroke-linecap="round"/>
  <path d="M128 146V152" stroke="#FBBF24" stroke-width="7" stroke-linecap="round"/>
</svg>
